<?xml version="1.0" encoding="utf-8" ?>
<svg baseProfile="full" height="594mm" version="1.1" viewBox="0 0 841 594" width="841mm" xmlns="http://www.w3.org/2000/svg" xmlns:ev="http://www.w3.org/2001/xml-events" xmlns:xlink="http://www.w3.org/1999/xlink"><defs /><g><text font-family="Arial" font-size="3.45016666666667" x="298.75" y="159.7001666666667">SHUTDOWN</text><text font-family="Arial" font-size="3.45016666666667" x="251.25" y="117.20016666666669">PA-200</text><text font-family="Arial" font-size="3.45016666666667" x="270.0" y="117.20016666666669">VENT</text><text font-family="Arial" font-size="3.45016666666667" x="298.75" y="117.20016666666669">VENT</text><text font-family="Arial" font-size="3.45016666666667" x="315.0" y="117.20016666666669">RESET</text><text font-family="Arial" font-size="3.45016666666667" x="166.25" y="203.4501666666667">OPEN</text><text font-family="Arial" font-size="3.45016666666667" x="163.75" y="223.4501666666667">CLOSED</text><text font-family="Arial" font-size="3.45016666666667" x="248.75" y="239.7001666666667">OPEN</text><text font-family="Arial" font-size="3.45016666666667" x="261.25" y="239.7001666666667">CLOSED</text><text font-family="Arial" font-size="3.45016666666667" x="288.75" y="290.9501666666667">AIR</text><text font-family="Arial" font-size="3.45016666666667" x="621.25" y="334.7001666666667">NATURAL GAS</text><text font-family="Arial" font-size="3.45016666666667" x="656.25" y="24.700166666666632">1.
</text><text font-family="Arial" font-size="3.45016666666667" x="656.25" y="35.95016666666663">2.</text><text font-family="Arial" font-size="3.45016666666667" x="656.25" y="43.45016666666663">3.</text><text font-family="Arial" font-size="3.45016666666667" x="656.25" y="54.70016666666663">4.</text><text font-family="Arial" font-size="3.45016666666667" x="666.25" y="24.700166666666632">SEE DRAWINGS 53225-D-00-1 THRU 53225-D-00-4 FOR STANDARD 
SYMBOLS AND NOMENCLATURE.</text><text font-family="Arial" font-size="3.45016666666667" x="666.25" y="35.95016666666663">ALL DRAIN AND VENT VALVES ARE 3/4" UNLESS OTHERWISE NOTED.</text><text font-family="Arial" font-size="3.45016666666667" x="666.25" y="43.45016666666663">PUMP CASING VENT TO BE PIPED TO GRADE OR OTHER SAFE
LOCATION.</text><text font-family="Arial" font-size="3.45016666666667" x="666.25" y="54.70016666666663">ALL EQUIPMENT NUMBERS ARE PREFIXED BY "1060".</text><line stroke="black" stroke-width="0.1" x1="656.25" x2="673.75" y1="17.5" y2="17.5" /><line stroke="black" stroke-width="0.1" x1="656.25" x2="668.75" y1="63.75" y2="63.75" /><g><line stroke="black" stroke-width="0.7" x1="296.25" x2="305.0" y1="290.0" y2="290.0" /><line stroke="black" stroke-width="0.35" x1="298.25" x2="300.25" y1="290.6667" y2="290.0" /><line stroke="black" stroke-width="0.35" x1="298.25" x2="300.25" y1="289.3333" y2="290.0" /></g><g><line stroke="black" stroke-width="0.7" x1="306.0" x2="306.2605" y1="290.0" y2="290.0" /><line stroke="black" stroke-width="0.35" x1="306.1302" x2="306.2605" y1="290.0434" y2="290.0" /><line stroke="black" stroke-width="0.35" x1="306.1302" x2="306.2605" y1="289.9566" y2="290.0" /></g><g><line stroke="black" stroke-width="0.35" x1="621.0" x2="604.12" y1="339.99" y2="339.9914" /><line stroke="black" stroke-width="0.35" x1="618.9999" x2="617.0" y1="339.32349999999997" y2="339.9903" /><line stroke="black" stroke-width="0.35" x1="619.0001" x2="617.0" y1="340.6568" y2="339.9903" /><text font-family="Arial" font-size="3.52777777777778" x="572.0" y="339.19388888888886">P-2237-?-C1P0-N</text></g><g><line stroke="black" stroke-width="0.7" x1="591.0" x2="591.01" y1="339.96000000000004" y2="336.5979" /><line stroke="black" stroke-width="0.35" x1="591.5654" x2="591.01" y1="338.2806" y2="336.5979" /><line stroke="black" stroke-width="0.35" x1="590.4446" x2="591.01" y1="338.27729999999997" y2="336.5979" /></g><g><line stroke="black" stroke-width="0.35" x1="597.1" x2="530.0" y1="339.96000000000004" y2="339.9842" /><line stroke="black" stroke-width="0.35" x1="595.0998" x2="593.1" y1="339.29409999999996" y2="339.9614" /><line stroke="black" stroke-width="0.35" x1="595.1002" x2="593.1" y1="340.62739999999997" y2="339.9614" /></g><g><line stroke="black" stroke-width="0.35" x1="528.0" x2="485.0004" y1="339.98" y2="339.9957" /><line stroke="black" stroke-width="0.35" x1="525.9998" x2="524.0" y1="339.3141" y2="339.9815" /><line stroke="black" stroke-width="0.35" x1="526.0002" x2="524.0" y1="340.6474" y2="339.9815" /></g><g><line stroke="black" stroke-width="0.35" x1="71.25" x2="238.75" y1="276.25" y2="276.2398" /><line stroke="black" stroke-width="0.35" x1="73.25" x2="75.25" y1="276.9165" y2="276.2498" /><line stroke="black" stroke-width="0.35" x1="73.25" x2="75.25" y1="275.5832" y2="276.2498" /><line stroke="black" stroke-width="0.18" x1="41.25" x2="41.25" y1="272.25" y2="280.25" /><line stroke="black" stroke-width="0.18" x1="41.25" x2="67.25" y1="272.25" y2="272.25" /><line stroke="black" stroke-width="0.18" x1="41.25" x2="67.25" y1="280.25" y2="280.25" /><line stroke="black" stroke-width="0.18" x1="51.25" x2="51.25" y1="280.25" y2="272.25" /><line stroke="black" stroke-width="0.18" x1="67.25" x2="71.25" y1="280.25" y2="276.25" /><line stroke="black" stroke-width="0.18" x1="67.25" x2="71.25" y1="272.25" y2="276.25" /><text font-family="Arial" font-size="3.52777777777778" x="82.5" y="275.51388888888886">P-2264-30 "-E1P0-N</text><text font-family="Arial" font-size="3.52777777777778" x="41.25" y="272.01388888888886">From </text><text font-family="宋体" font-size="3.52777777777778" x="42.71" y="278.01388888888886">0940</text></g><g><line stroke="black" stroke-width="0.7" x1="243.75" x2="305.0" y1="276.24" y2="276.2498" /><line stroke="black" stroke-width="0.35" x1="245.7499" x2="247.75" y1="276.907" y2="276.2406" /><line stroke="black" stroke-width="0.35" x1="245.7501" x2="247.75" y1="275.5737" y2="276.2406" /></g><g><line stroke="black" stroke-width="0.35" x1="140.0" x2="140.0" y1="276.25" y2="246.25" /><line stroke="black" stroke-width="0.35" x1="140.6667" x2="140.0" y1="274.25" y2="272.25" /><line stroke="black" stroke-width="0.35" x1="139.3333" x2="140.0" y1="274.25" y2="272.25" /><text font-family="Arial" font-size="3.52777777777778" transform="rotate(90 137.5,275.0042)" x="137.5" y="276.7680888888889">P-2225-30 "-E1P0-N</text></g><g><line stroke="black" stroke-width="0.35" x1="140.0" x2="140.0" y1="241.25" y2="180.0" /><line stroke="black" stroke-width="0.35" x1="140.6667" x2="140.0" y1="239.25" y2="237.25" /><line stroke="black" stroke-width="0.35" x1="139.3333" x2="140.0" y1="239.25" y2="237.25" /><line stroke="black" stroke-width="0.25" x1="139.25" x2="140.0" y1="183.75" y2="180.0" /><line stroke="black" stroke-width="0.25" x1="140.0" x2="140.75" y1="180.0" y2="183.75" /><line stroke="black" stroke-width="0.25" x1="140.75" x2="139.25" y1="183.75" y2="183.75" /><line stroke="black" stroke-width="0.25" x1="139.25" x2="140.0" y1="183.75" y2="180.0" /><line stroke="black" stroke-width="0.25" x1="140.0" x2="140.75" y1="180.0" y2="183.75" /><line stroke="black" stroke-width="0.25" x1="140.75" x2="139.25" y1="183.75" y2="183.75" /></g></g><g id="A45BM4VSLF" /><g id="A45BQJZUU3"><g id="A45BQJZUU3_info"><g id="A45BQJZUU3_shape"><line stroke="black" stroke-width="0.35" x1="288.75" x2="283.75" y1="156.25" y2="161.25" /><line stroke="black" stroke-width="0.35" x1="288.75" x2="283.75" y1="166.25" y2="161.25" /><line stroke="black" stroke-width="0.35" x1="288.75" x2="293.75" y1="156.25" y2="161.25" /><line stroke="black" stroke-width="0.35" x1="288.75" x2="293.75" y1="166.25" y2="161.25" /><line stroke="black" stroke-width="0.35" x1="283.75" x2="293.75" y1="161.25" y2="161.25" /><line stroke="black" stroke-width="0.35" x1="293.75" x2="293.75" y1="156.25" y2="166.25" /><line stroke="black" stroke-width="0.35" x1="293.75" x2="283.75" y1="156.25" y2="156.25" /><line stroke="black" stroke-width="0.35" x1="293.75" x2="283.75" y1="166.25" y2="166.25" /><line stroke="black" stroke-width="0.35" x1="283.75" x2="283.75" y1="156.25" y2="166.25" /><circle cx="283.75" cy="161.25" fill="none" r="1.0" stroke="black" stroke-width="0.1" /><circle cx="293.75" cy="161.25" fill="none" r="1.0" stroke="black" stroke-width="0.1" /><circle cx="288.75" cy="166.25" fill="none" r="1.0" stroke="black" stroke-width="0.1" /><circle cx="288.75" cy="156.25" fill="none" r="1.0" stroke="black" stroke-width="0.1" /><circle cx="286.25" cy="156.25" fill="none" r="1.0" stroke="black" stroke-width="0.1" /><circle cx="291.25" cy="156.25" fill="none" r="1.0" stroke="black" stroke-width="0.1" /></g><g id="A45BQJZUU3_text"><text font-family="Arial" font-size="3.175" x="286.8" y="160.83750000000003">SD</text><text font-family="Arial" font-size="3.175" x="285.33" y="164.83750000000003">2253</text></g></g></g><g id="A45BQLTVU3"><g id="A45BQLTVU3_info"><g id="A45BQLTVU3_shape"><path d="M 240.0 118.75 A 5.0 5.0 0 0,0 240.0 128.75" fill="none" stroke="black" stroke-width="0.35" /><path d="M 240.0 128.75 A 5.0 5.0 0 0,0 240.0 118.75" fill="none" stroke="black" stroke-width="0.35" /><line stroke="black" stroke-width="0.35" x1="235.0" x2="245.0" y1="118.75" y2="118.75" /><line stroke="black" stroke-width="0.35" x1="245.0" x2="245.0" y1="118.75" y2="128.75" /><line stroke="black" stroke-width="0.35" x1="245.0" x2="235.0" y1="128.75" y2="128.75" /><line stroke="black" stroke-width="0.35" x1="235.0" x2="235.0" y1="128.75" y2="118.75" /><circle cx="235.0" cy="123.75" fill="none" r="1.0" stroke="black" stroke-width="0.1" /><circle cx="245.0" cy="123.75" fill="none" r="1.0" stroke="black" stroke-width="0.1" /><circle cx="240.0" cy="128.75" fill="none" r="1.0" stroke="black" stroke-width="0.1" /><circle cx="240.0" cy="118.75" fill="none" r="1.0" stroke="black" stroke-width="0.1" /></g><g id="A45BQLTVU3_text"><text font-family="Arial" font-size="3.175" x="246.25" y="121.58750000000003">H</text><text font-family="Arial" font-size="3.175" x="238.69" y="123.33750000000003">PI</text><text font-family="Arial" font-size="3.175" x="236.58" y="127.33750000000003">2253</text></g></g></g><g id="A45BQLZSU3" /><g id="A45BQM20U3" /><g id="A45BQMM8U3" /><g id="A45BQMO4U3" /><g id="A45BQMRCU3" /><g id="A45DFK01CU" /><g id="A45DFLIBCU" /><g id="A45DFM5JCU" /><g id="A45DFMI3CU" /><g id="A45DMXZSYM" /><g id="A45DMYA2YM" /><g id="A45DMYDEYM" /><g id="A45DMYTSYM" /><g id="A45DMYXEYM" /><g id="A45DMZ8IYM" /><g id="A45DNKUUYM" /><g id="A45DNL0EYM" /><g id="A45DNL4AYM" /><g id="A45DNL5YYM" /><g><g><line stroke="black" stroke-width="0.35" x1="298.25" x2="300.25" y1="290.6667" y2="290.0" /><line stroke="black" stroke-width="0.35" x1="298.25" x2="300.25" y1="289.3333" y2="290.0" /><line stroke="black" stroke-width="0.35" x1="306.1302" x2="306.2605" y1="290.0434" y2="290.0" /><line stroke="black" stroke-width="0.35" x1="306.1302" x2="306.2605" y1="289.9566" y2="290.0" /><polyline fill="none" points="296.25,290.0 305.0,290.0" stroke="black" stroke-width="0.7" /><polyline fill="none" points="306.0,290.0 306.2605,290.0" stroke="black" stroke-width="0.7" /><g id="A45BL1FILF" /></g></g><g><g><line stroke="black" stroke-width="0.35" x1="618.9999" x2="617.0" y1="339.32349999999997" y2="339.9903" /><line stroke="black" stroke-width="0.35" x1="619.0001" x2="617.0" y1="340.6568" y2="339.9903" /><line stroke="black" stroke-width="0.35" x1="595.0998" x2="593.1" y1="339.29409999999996" y2="339.9614" /><line stroke="black" stroke-width="0.35" x1="595.1002" x2="593.1" y1="340.62739999999997" y2="339.9614" /><polyline fill="none" points="621.0,339.99 604.12,339.9914" stroke="black" stroke-width="0.35" /><polyline fill="none" points="597.1,339.96000000000004 530.0,339.9842" stroke="black" stroke-width="0.35" /><g id="A45DMTSYYM" /><g id="A45DMX0SYM"><g id="A45DMX0SYM_info"><g id="A45DMX0SYM_shape"><line stroke="black" stroke-width="0.35" x1="530.0" x2="530.0" y1="338.73" y2="341.23" /><line stroke="black" stroke-width="0.35" x1="528.0" x2="528.0" y1="338.73" y2="341.23" /><line stroke="black" stroke-width="0.35" x1="529.0" x2="529.0" y1="342.48" y2="340.48" /><line stroke="black" stroke-width="0.35" x1="529.0" x2="529.0" y1="339.48" y2="337.48" /><circle cx="530.0" cy="339.98" fill="none" r="1.0" stroke="black" stroke-width="0.1" /><circle cx="528.0" cy="339.98" fill="none" r="1.0" stroke="black" stroke-width="0.1" /><circle cx="529.0" cy="337.9958" fill="none" r="1.0" stroke="black" stroke-width="0.1" /></g></g></g><g /></g><g><line stroke="black" stroke-width="0.35" x1="591.5654" x2="591.01" y1="338.2806" y2="336.5979" /><line stroke="black" stroke-width="0.35" x1="590.4446" x2="591.01" y1="338.27729999999997" y2="336.5979" /><polyline fill="none" points="591.0,339.96000000000004 591.01,336.5979" stroke="black" stroke-width="0.7" /><g id="A45DMUHOYM" /></g><g><line stroke="black" stroke-width="0.35" x1="525.9998" x2="524.0" y1="339.3141" y2="339.9815" /><line stroke="black" stroke-width="0.35" x1="526.0002" x2="524.0" y1="340.6474" y2="339.9815" /><polyline fill="none" points="528.0,339.98 485.0004,339.9957" stroke="black" stroke-width="0.35" /><g id="A45DIM63CU" /><g /></g></g><g><g><line stroke="black" stroke-width="0.35" x1="73.25" x2="75.25" y1="276.9165" y2="276.2498" /><line stroke="black" stroke-width="0.35" x1="73.25" x2="75.25" y1="275.5832" y2="276.2498" /><polyline fill="none" points="71.25,276.25 238.75,276.2398" stroke="black" stroke-width="0.35" /><g id="A45BMN2ILF"><g id="A45BMN34LF"><g id="A45BMN34LF_info"><g id="A45BMN34LF_shape"><line stroke="black" stroke-width="0.0" x1="241.25" x2="241.250399999998" y1="276.25" y2="272.25000002" /><line stroke="black" stroke-width="0.0" x1="239.250400009998" x2="243.250399989998" y1="272.249800020001" y2="272.250200019999" /><path d="M 243.250399989998 272.250200019999 A 2.0 2.0 0 0,0 239.250400009998 272.24980002000103" fill="none" stroke="black" stroke-width="0.0" /><circle cx="241.2505" cy="270.25" fill="none" r="1.0" stroke="black" stroke-width="0.1" /><circle cx="241.2502" cy="273.75" fill="none" r="1.0" stroke="black" stroke-width="0.1" /><circle cx="241.2503" cy="272.5" fill="none" r="1.0" stroke="black" stroke-width="0.1" /></g></g></g></g><g /></g><g><line stroke="black" stroke-width="0.35" x1="245.7499" x2="247.75" y1="276.907" y2="276.2406" /><line stroke="black" stroke-width="0.35" x1="245.7501" x2="247.75" y1="275.5737" y2="276.2406" /><polyline fill="none" points="243.75,276.24 305.0,276.2498" stroke="black" stroke-width="0.7" /><g id="A45E5EYYDE" /></g></g><g><g><line stroke="black" stroke-width="0.35" x1="140.6667" x2="140.0" y1="274.25" y2="272.25" /><line stroke="black" stroke-width="0.35" x1="139.3333" x2="140.0" y1="274.25" y2="272.25" /><polyline fill="none" points="140.0,276.25 140.0,246.25" stroke="black" stroke-width="0.35" /><g id="A45EN4VYA4"><g id="A45EN4WKA4"><g id="A45EN4WKA4_info"><g id="A45EN4WKA4_shape"><line stroke="black" stroke-width="0.0" x1="140.0" x2="136.0" y1="243.75" y2="243.75" /><line stroke="black" stroke-width="0.0" x1="136.0" x2="136.0" y1="241.75" y2="245.75" /><path d="M 136.0 241.75 A 2.0 2.0 0 0,0 136.0 245.75" fill="none" stroke="black" stroke-width="0.0" /><circle cx="146.0" cy="243.75" fill="none" r="1.0" stroke="black" stroke-width="0.1" /><circle cx="142.5" cy="243.75" fill="none" r="1.0" stroke="black" stroke-width="0.1" /><circle cx="143.7501" cy="243.75" fill="none" r="1.0" stroke="black" stroke-width="0.1" /></g></g></g></g></g><g><line stroke="black" stroke-width="0.35" x1="140.6667" x2="140.0" y1="239.25" y2="237.25" /><line stroke="black" stroke-width="0.35" x1="139.3333" x2="140.0" y1="239.25" y2="237.25" /><polyline fill="none" points="140.0,241.25 140.0,180.0" stroke="black" stroke-width="0.35" /></g></g><g><g><g id="A45BJXWLLF" /><g id="A45BJXWJLF" /><g id="A45BJXWILF" /><g id="A45BJXWKLF" /><g id="A45BJXWHLF" /><g id="A45BKXFCLF"><g id="A45BKXFCLF_info"><g id="A45BKXFCLF_shape"><line stroke="black" stroke-width="0.25" transform="scale(17.7759,15.1) translate(-372.91102706473373,-262.4000662251656)" x1="390.14" x2="400.14" y1="286.01" y2="286.01" /><line stroke="black" stroke-width="0.25" transform="scale(17.7759,15.1) translate(-372.91102706473373,-262.4000662251656)" x1="400.14" x2="400.14" y1="286.01" y2="276.01" /><line stroke="black" stroke-width="0.25" transform="scale(17.7759,15.1) translate(-372.91102706473373,-262.4000662251656)" x1="400.14" x2="390.14" y1="276.01" y2="276.01" /><line stroke="black" stroke-width="0.25" transform="scale(17.7759,15.1) translate(-372.91102706473373,-262.4000662251656)" x1="390.14" x2="390.14" y1="276.01" y2="286.01" /><circle cx="484.0195" cy="340.0" fill="none" r="1.0" stroke="black" stroke-width="0.1" /><circle cx="306.2605" cy="290.0" fill="none" r="1.0" stroke="black" stroke-width="0.1" /><circle cx="306.0" cy="276.0" fill="none" r="1.0" stroke="black" stroke-width="0.1" /><circle cx="420.02" cy="205.5102" fill="none" r="1.0" stroke="black" stroke-width="0.1" /></g><g id="A45BKXFCLF_text"><text font-family="Arial" font-size="5.64444444444444" x="390.58" y="268.7322222222223">003</text></g></g></g><g id="A45DM3T4EH"><g id="A45DM3T4EH_info"><g id="A45DM3T4EH_shape"><line stroke="black" stroke-width="0.25" x1="631.02" x2="651.02" y1="337.08" y2="337.08" /><line stroke="black" stroke-width="0.25" x1="651.02" x2="651.02" y1="343.08000000000004" y2="337.08" /><line stroke="black" stroke-width="0.25" x1="651.02" x2="631.02" y1="343.08000000000004" y2="343.08000000000004" /><line stroke="black" stroke-width="0.25" x1="631.02" x2="631.02" y1="343.08000000000004" y2="345.08000000000004" /><line stroke="black" stroke-width="0.25" x1="621.02" x2="631.02" y1="340.08000000000004" y2="345.08000000000004" /><line stroke="black" stroke-width="0.25" x1="631.02" x2="631.02" y1="335.08" y2="337.08" /><line stroke="black" stroke-width="0.25" x1="621.02" x2="631.02" y1="340.08000000000004" y2="335.08" /><circle cx="621.0" cy="339.99" fill="none" r="1.0" stroke="black" stroke-width="0.1" /></g><g id="A45DM3T4EH_text"><text font-family="Arial" font-size="2.46944444444444" x="647.0004" y="341.2347222222222">OSBL</text></g></g></g><g id="A45DM4I7EH"><g id="A45DM4I7EH_info"><g id="A45DM4I7EH_shape"><line stroke="black" stroke-width="0.25" x1="612.0" x2="612.0" y1="334.99" y2="351.24" /><line stroke="black" stroke-width="0.25" x1="620.75" x2="603.25" y1="339.99" y2="339.99" /><line stroke="black" stroke-width="0.25" x1="612.0" x2="617.0" y1="334.99" y2="331.24" /><line stroke="black" stroke-width="0.25" x1="612.0" x2="607.0" y1="334.99" y2="331.24" /><line stroke="black" stroke-width="0.25" x1="617.0" x2="612.0" y1="331.24" y2="327.49" /><line stroke="black" stroke-width="0.25" x1="612.0" x2="607.0" y1="327.49" y2="331.24" /><line stroke="black" stroke-width="0.25" x1="614.5" x2="609.5" y1="339.365" y2="340.615" /><line stroke="black" stroke-width="0.25" x1="614.5" x2="609.5" y1="340.615" y2="339.3645" /><line stroke="black" stroke-width="0.25" x1="614.5" x2="614.5" y1="340.615" y2="339.365" /><line stroke="black" stroke-width="0.25" x1="614.5" x2="609.5" y1="339.365" y2="340.615" /><line stroke="black" stroke-width="0.25" x1="609.5" x2="609.5" y1="340.615" y2="339.3645" /><line stroke="black" stroke-width="0.25" x1="614.5" x2="609.5" y1="340.615" y2="339.3645" /><line stroke="black" stroke-width="0.25" x1="614.5" x2="609.5" y1="339.365" y2="340.615" /><line stroke="black" stroke-width="0.25" x1="609.5" x2="609.5" y1="340.615" y2="339.3645" /><line stroke="black" stroke-width="0.25" x1="614.5" x2="609.5" y1="340.615" y2="339.3645" /></g><g id="A45DM4I7EH_text"><text font-family="Arial" font-size="3.52777777777778" x="609.15" y="333.25388888888887">001</text></g></g></g><g id="A45DMTAOYM" /><g id="A45DMU42YM" /><g id="A45DMUTCYM" /><g id="A45JS4DC68" /><g id="A45JS8OC68" /><g id="A45JSD6K68" /><g id="A46MI62YO7" /><g id="A46MI62XO7" /><g id="A46MI67CO7" /><g id="A46MI6JAO7" /></g></g></svg>