<?xml version="1.0" encoding="utf-8" ?>
<svg baseProfile="full" height="297mm" version="1.1" viewBox="0 0 840 297" width="840mm" xmlns="http://www.w3.org/2000/svg" xmlns:ev="http://www.w3.org/2001/xml-events" xmlns:xlink="http://www.w3.org/1999/xlink"><defs /><g><g><line stroke="black" stroke-width="0.35" x1="132.0" x2="132.0" y1="58.5" y2="69.5" /><line stroke="black" stroke-width="0.35" x1="132.0" x2="158.5" y1="69.5" y2="69.5" /><line stroke="black" stroke-width="0.35" x1="158.5" x2="158.5" y1="69.5" y2="77.5" /><line stroke="black" stroke-width="0.35" x1="131.3333" x2="132.0" y1="60.5" y2="62.5" /><line stroke="black" stroke-width="0.35" x1="132.6667" x2="132.0" y1="60.5" y2="62.5" /></g><g><line stroke="black" stroke-width="0.35" x1="215.5" x2="215.5" y1="59.0" y2="69.5" /><line stroke="black" stroke-width="0.35" x1="215.5" x2="173.5" y1="69.5" y2="69.5" /><line stroke="black" stroke-width="0.35" x1="173.5" x2="173.5" y1="69.5" y2="77.5" /><line stroke="black" stroke-width="0.35" x1="214.8333" x2="215.5" y1="61.0" y2="63.0" /><line stroke="black" stroke-width="0.35" x1="216.1667" x2="215.5" y1="61.0" y2="63.0" /></g><g><line stroke="black" stroke-width="0.35" x1="173.5" x2="173.5" y1="97.5" y2="117.5" /><line stroke="black" stroke-width="0.35" x1="172.8333" x2="173.5" y1="99.5" y2="101.5" /><line stroke="black" stroke-width="0.35" x1="174.1667" x2="173.5" y1="99.5" y2="101.5" /></g><g><line stroke="black" stroke-width="0.35" x1="159.5" x2="159.5" y1="137.5" y2="148.5" /><line stroke="black" stroke-width="0.35" x1="159.5" x2="131.5" y1="148.5" y2="148.5" /><line stroke="black" stroke-width="0.35" x1="131.5" x2="131.5" y1="148.5" y2="165.5" /><line stroke="black" stroke-width="0.35" x1="158.8333" x2="159.5" y1="139.5" y2="141.5" /><line stroke="black" stroke-width="0.35" x1="160.1667" x2="159.5" y1="139.5" y2="141.5" /></g><g><line stroke="black" stroke-width="0.35" x1="173.5" x2="173.5" y1="137.5" y2="155.5" /><line stroke="black" stroke-width="0.35" x1="173.5" x2="215.5" y1="155.5" y2="155.5" /><line stroke="black" stroke-width="0.35" x1="215.5" x2="215.5" y1="155.5" y2="203.5" /><line stroke="black" stroke-width="0.35" x1="172.8333" x2="173.5" y1="139.5" y2="141.5" /><line stroke="black" stroke-width="0.35" x1="174.1667" x2="173.5" y1="139.5" y2="141.5" /></g><g><line stroke="black" stroke-width="0.35" x1="188.5" x2="188.5" y1="77.5" y2="73.0" /><line stroke="black" stroke-width="0.35" x1="188.5" x2="204.5" y1="73.0" y2="73.0" /><line stroke="black" stroke-width="0.35" x1="204.5" x2="204.5" y1="73.0" y2="143.0" /><line stroke="black" stroke-width="0.35" x1="204.5" x2="188.5" y1="143.0" y2="143.0" /><line stroke="black" stroke-width="0.35" x1="188.5" x2="188.5" y1="143.0" y2="137.5" /><line stroke="black" stroke-width="0.35" x1="189.1667" x2="188.5" y1="75.5" y2="73.5" /><line stroke="black" stroke-width="0.35" x1="187.8333" x2="188.5" y1="75.5" y2="73.5" /></g><g><line stroke="black" stroke-width="0.35" x1="215.5" x2="215.5" y1="223.5" y2="236.0" /><line stroke="black" stroke-width="0.35" x1="214.8333" x2="215.5" y1="225.5" y2="227.5" /><line stroke="black" stroke-width="0.35" x1="216.1667" x2="215.5" y1="225.5" y2="227.5" /></g><g><line stroke="black" stroke-width="0.35" x1="131.5" x2="131.5" y1="185.5" y2="235.0" /><line stroke="black" stroke-width="0.35" x1="130.8333" x2="131.5" y1="187.5" y2="189.5" /><line stroke="black" stroke-width="0.35" x1="132.1667" x2="131.5" y1="187.5" y2="189.5" /></g><g><line stroke="black" stroke-width="0.35" x1="147.0" x2="147.0" y1="185.5" y2="194.5" /><line stroke="black" stroke-width="0.35" x1="147.0" x2="200.0" y1="194.5" y2="194.5" /><line stroke="black" stroke-width="0.35" x1="200.0" x2="200.0" y1="194.5" y2="203.5" /><line stroke="black" stroke-width="0.35" x1="146.3333" x2="147.0" y1="187.5" y2="189.5" /><line stroke="black" stroke-width="0.35" x1="147.6667" x2="147.0" y1="187.5" y2="189.5" /></g><g><line stroke="black" stroke-width="0.35" x1="230.5" x2="230.5" y1="59.0" y2="203.5" /><line stroke="black" stroke-width="0.35" x1="229.8333" x2="230.5" y1="61.0" y2="63.0" /><line stroke="black" stroke-width="0.35" x1="231.1667" x2="230.5" y1="61.0" y2="63.0" /></g></g><g><g><g><line stroke="black" stroke-width="0.5" x1="109.5" x2="109.5" y1="38.5" y2="58.5" /><line stroke="black" stroke-width="0.5" x1="154.5" x2="154.5" y1="38.5" y2="58.5" /><line stroke="black" stroke-width="0.5" x1="154.5" x2="109.5" y1="58.5" y2="58.5" /><line stroke="black" stroke-width="0.5" x1="109.5" x2="154.5" y1="38.5" y2="38.5" /><line stroke="black" stroke-width="0.1" x1="109.5" x2="154.5" y1="48.5" y2="48.5" /><line stroke="black" stroke-width="0.1" x1="109.5" x2="154.5" y1="53.5" y2="53.5" /><line stroke="black" stroke-width="0.1" x1="132.0" x2="132.0" y1="53.5" y2="58.5" /><circle cx="132.0" cy="38.5" fill="none" r="1.0" stroke="black" stroke-width="0.1" /><circle cx="132.0" cy="58.5" fill="none" r="1.0" stroke="black" stroke-width="0.1" /></g><g><text font-family="Arial" font-size="3.52777777777778" x="115.63" y="45.263888888888886">Base material supply</text></g></g></g><g><g><g><line stroke="black" stroke-width="0.5" x1="193.0" x2="193.0" y1="39.0" y2="59.0" /><line stroke="black" stroke-width="0.5" x1="238.0" x2="238.0" y1="39.0" y2="59.0" /><line stroke="black" stroke-width="0.5" x1="238.0" x2="193.0" y1="59.0" y2="59.0" /><line stroke="black" stroke-width="0.5" x1="193.0" x2="238.0" y1="39.0" y2="39.0" /><line stroke="black" stroke-width="0.1" x1="193.0" x2="238.0" y1="49.0" y2="49.0" /><line stroke="black" stroke-width="0.1" x1="193.0" x2="238.0" y1="54.0" y2="54.0" /><line stroke="black" stroke-width="0.1" x1="215.5" x2="215.5" y1="54.0" y2="59.0" /><circle cx="215.5" cy="39.0" fill="none" r="1.0" stroke="black" stroke-width="0.1" /><circle cx="215.5" cy="59.0" fill="none" r="1.0" stroke="black" stroke-width="0.1" /><circle cx="230.5" cy="59.0" fill="none" r="1.0" stroke="black" stroke-width="0.1" /></g><g><text font-family="Arial" font-size="3.52777777777778" x="195.5" y="45.763888888888886">Fresh water</text></g></g></g><g><g><g><line stroke="black" stroke-width="0.5" x1="151.0" x2="151.0" y1="77.5" y2="97.5" /><line stroke="black" stroke-width="0.5" x1="196.0" x2="196.0" y1="77.5" y2="97.5" /><line stroke="black" stroke-width="0.5" x1="196.0" x2="151.0" y1="97.5" y2="97.5" /><line stroke="black" stroke-width="0.5" x1="151.0" x2="196.0" y1="77.5" y2="77.5" /><line stroke="black" stroke-width="0.1" x1="151.0" x2="196.0" y1="87.5" y2="87.5" /><line stroke="black" stroke-width="0.1" x1="151.0" x2="196.0" y1="92.5" y2="92.5" /><line stroke="black" stroke-width="0.1" x1="173.5" x2="173.5" y1="92.5" y2="97.5" /><circle cx="173.5" cy="77.5" fill="none" r="1.0" stroke="black" stroke-width="0.1" /><circle cx="173.5" cy="97.5" fill="none" r="1.0" stroke="black" stroke-width="0.1" /><circle cx="158.5" cy="77.5" fill="none" r="1.0" stroke="black" stroke-width="0.1" /><circle cx="188.5" cy="77.5" fill="none" r="1.0" stroke="black" stroke-width="0.1" /></g><g><text font-family="Arial" font-size="3.52777777777778" x="153.5" y="84.26388888888889">Conditioning (P&amp;ID)</text></g></g></g><g><g><g><line stroke="black" stroke-width="0.5" x1="151.0" x2="151.0" y1="117.5" y2="137.5" /><line stroke="black" stroke-width="0.5" x1="196.0" x2="196.0" y1="117.5" y2="137.5" /><line stroke="black" stroke-width="0.5" x1="196.0" x2="151.0" y1="137.5" y2="137.5" /><line stroke="black" stroke-width="0.5" x1="151.0" x2="196.0" y1="117.5" y2="117.5" /><line stroke="black" stroke-width="0.1" x1="151.0" x2="196.0" y1="127.5" y2="127.5" /><line stroke="black" stroke-width="0.1" x1="151.0" x2="196.0" y1="132.5" y2="132.5" /><line stroke="black" stroke-width="0.1" x1="173.5" x2="173.5" y1="132.5" y2="137.5" /><circle cx="173.5" cy="117.5" fill="none" r="1.0" stroke="black" stroke-width="0.1" /><circle cx="173.5" cy="137.5" fill="none" r="1.0" stroke="black" stroke-width="0.1" /><circle cx="159.5" cy="137.5" fill="none" r="1.0" stroke="black" stroke-width="0.1" /><circle cx="188.5" cy="137.5" fill="none" r="1.0" stroke="black" stroke-width="0.1" /></g><g><text font-family="Arial" font-size="3.52777777777778" x="153.5" y="124.26388888888889">Reaction 01 (P&amp;ID)</text></g></g></g><g><g><g><line stroke="black" stroke-width="0.5" x1="109.0" x2="109.0" y1="165.5" y2="185.5" /><line stroke="black" stroke-width="0.5" x1="154.0" x2="154.0" y1="165.5" y2="185.5" /><line stroke="black" stroke-width="0.5" x1="154.0" x2="109.0" y1="185.5" y2="185.5" /><line stroke="black" stroke-width="0.5" x1="109.0" x2="154.0" y1="165.5" y2="165.5" /><line stroke="black" stroke-width="0.1" x1="109.0" x2="154.0" y1="175.5" y2="175.5" /><line stroke="black" stroke-width="0.1" x1="109.0" x2="154.0" y1="180.5" y2="180.5" /><line stroke="black" stroke-width="0.1" x1="131.5" x2="131.5" y1="180.5" y2="185.5" /><circle cx="131.5" cy="165.5" fill="none" r="1.0" stroke="black" stroke-width="0.1" /><circle cx="131.5" cy="185.5" fill="none" r="1.0" stroke="black" stroke-width="0.1" /><circle cx="147.0" cy="185.5" fill="none" r="1.0" stroke="black" stroke-width="0.1" /></g><g><text font-family="Arial" font-size="3.52777777777778" x="111.5" y="172.2638888888889">Drying</text></g></g></g><g><g><g><line stroke="black" stroke-width="0.5" x1="193.0" x2="193.0" y1="203.5" y2="223.5" /><line stroke="black" stroke-width="0.5" x1="238.0" x2="238.0" y1="203.5" y2="223.5" /><line stroke="black" stroke-width="0.5" x1="238.0" x2="193.0" y1="223.5" y2="223.5" /><line stroke="black" stroke-width="0.5" x1="193.0" x2="238.0" y1="203.5" y2="203.5" /><line stroke="black" stroke-width="0.1" x1="193.0" x2="238.0" y1="213.5" y2="213.5" /><line stroke="black" stroke-width="0.1" x1="193.0" x2="238.0" y1="218.5" y2="218.5" /><line stroke="black" stroke-width="0.1" x1="215.5" x2="215.5" y1="218.5" y2="223.5" /><circle cx="215.5" cy="203.5" fill="none" r="1.0" stroke="black" stroke-width="0.1" /><circle cx="215.5" cy="223.5" fill="none" r="1.0" stroke="black" stroke-width="0.1" /><circle cx="200.0" cy="203.5" fill="none" r="1.0" stroke="black" stroke-width="0.1" /><circle cx="230.5" cy="203.5" fill="none" r="1.0" stroke="black" stroke-width="0.1" /></g><g><text font-family="Arial" font-size="3.52777777777778" x="195.5" y="210.2638888888889">Water treatment</text></g></g></g><g><g><g><line stroke="black" stroke-width="0.5" x1="109.0" x2="109.0" y1="235.0" y2="255.0" /><line stroke="black" stroke-width="0.5" x1="154.0" x2="154.0" y1="235.0" y2="255.0" /><line stroke="black" stroke-width="0.5" x1="154.0" x2="109.0" y1="255.0" y2="255.0" /><line stroke="black" stroke-width="0.5" x1="109.0" x2="154.0" y1="235.0" y2="235.0" /><line stroke="black" stroke-width="0.1" x1="109.0" x2="154.0" y1="245.0" y2="245.0" /><line stroke="black" stroke-width="0.1" x1="109.0" x2="154.0" y1="250.0" y2="250.0" /><line stroke="black" stroke-width="0.1" x1="131.5" x2="131.5" y1="250.0" y2="255.0" /><circle cx="131.5" cy="235.0" fill="none" r="1.0" stroke="black" stroke-width="0.1" /><circle cx="131.5" cy="255.0" fill="none" r="1.0" stroke="black" stroke-width="0.1" /></g><g><text font-family="Arial" font-size="3.52777777777778" x="125.325" y="241.76388888888889">Storage</text></g></g></g><g><g><g><line stroke="black" stroke-width="0.5" x1="193.0" x2="193.0" y1="236.0" y2="256.0" /><line stroke="black" stroke-width="0.5" x1="238.0" x2="238.0" y1="236.0" y2="256.0" /><line stroke="black" stroke-width="0.5" x1="238.0" x2="193.0" y1="256.0" y2="256.0" /><line stroke="black" stroke-width="0.5" x1="193.0" x2="238.0" y1="236.0" y2="236.0" /><line stroke="black" stroke-width="0.1" x1="193.0" x2="238.0" y1="246.0" y2="246.0" /><line stroke="black" stroke-width="0.1" x1="193.0" x2="238.0" y1="251.0" y2="251.0" /><line stroke="black" stroke-width="0.1" x1="215.5" x2="215.5" y1="251.0" y2="256.0" /><circle cx="215.5" cy="236.0" fill="none" r="1.0" stroke="black" stroke-width="0.1" /><circle cx="215.5" cy="256.0" fill="none" r="1.0" stroke="black" stroke-width="0.1" /></g><g><text font-family="Arial" font-size="3.52777777777778" x="206.185" y="242.76388888888889">Wastewater</text></g></g></g><g><line stroke="black" stroke-width="0.35" x1="131.3333" x2="132.0" y1="60.5" y2="62.5" /><line stroke="black" stroke-width="0.35" x1="132.6667" x2="132.0" y1="60.5" y2="62.5" /><polyline fill="none" points="132.0,58.5 132.0,69.5 158.5,69.5 158.5,77.5" stroke="black" stroke-width="0.35" /></g><g><line stroke="black" stroke-width="0.35" x1="214.8333" x2="215.5" y1="61.0" y2="63.0" /><line stroke="black" stroke-width="0.35" x1="216.1667" x2="215.5" y1="61.0" y2="63.0" /><polyline fill="none" points="215.5,59.0 215.5,69.5 173.5,69.5 173.5,77.5" stroke="black" stroke-width="0.35" /></g><g><line stroke="black" stroke-width="0.35" x1="172.8333" x2="173.5" y1="99.5" y2="101.5" /><line stroke="black" stroke-width="0.35" x1="174.1667" x2="173.5" y1="99.5" y2="101.5" /><polyline fill="none" points="173.5,97.5 173.5,117.5" stroke="black" stroke-width="0.35" /></g><g><line stroke="black" stroke-width="0.35" x1="158.8333" x2="159.5" y1="139.5" y2="141.5" /><line stroke="black" stroke-width="0.35" x1="160.1667" x2="159.5" y1="139.5" y2="141.5" /><polyline fill="none" points="159.5,137.5 159.5,148.5 131.5,148.5 131.5,165.5" stroke="black" stroke-width="0.35" /></g><g><line stroke="black" stroke-width="0.35" x1="172.8333" x2="173.5" y1="139.5" y2="141.5" /><line stroke="black" stroke-width="0.35" x1="174.1667" x2="173.5" y1="139.5" y2="141.5" /><polyline fill="none" points="173.5,137.5 173.5,155.5 215.5,155.5 215.5,203.5" stroke="black" stroke-width="0.35" /></g><g><line stroke="black" stroke-width="0.35" x1="189.1667" x2="188.5" y1="75.5" y2="73.5" /><line stroke="black" stroke-width="0.35" x1="187.8333" x2="188.5" y1="75.5" y2="73.5" /><polyline fill="none" points="188.5,77.5 188.5,73.0 204.5,73.0 204.5,143.0 188.5,143.0 188.5,137.5" stroke="black" stroke-width="0.35" /></g><g><line stroke="black" stroke-width="0.35" x1="214.8333" x2="215.5" y1="225.5" y2="227.5" /><line stroke="black" stroke-width="0.35" x1="216.1667" x2="215.5" y1="225.5" y2="227.5" /><polyline fill="none" points="215.5,223.5 215.5,236.0" stroke="black" stroke-width="0.35" /></g><g><line stroke="black" stroke-width="0.35" x1="130.8333" x2="131.5" y1="187.5" y2="189.5" /><line stroke="black" stroke-width="0.35" x1="132.1667" x2="131.5" y1="187.5" y2="189.5" /><polyline fill="none" points="131.5,185.5 131.5,235.0" stroke="black" stroke-width="0.35" /></g><g><line stroke="black" stroke-width="0.35" x1="146.3333" x2="147.0" y1="187.5" y2="189.5" /><line stroke="black" stroke-width="0.35" x1="147.6667" x2="147.0" y1="187.5" y2="189.5" /><polyline fill="none" points="147.0,185.5 147.0,194.5 200.0,194.5 200.0,203.5" stroke="black" stroke-width="0.35" /></g><g><line stroke="black" stroke-width="0.35" x1="229.8333" x2="230.5" y1="61.0" y2="63.0" /><line stroke="black" stroke-width="0.35" x1="231.1667" x2="230.5" y1="61.0" y2="63.0" /><polyline fill="none" points="230.5,59.0 230.5,203.5" stroke="black" stroke-width="0.35" /></g></svg>