<?xml version="1.0" encoding="utf-8" ?>
<svg baseProfile="full" height="841mm" version="1.1" viewBox="0 0 1189 841" width="1189mm" xmlns="http://www.w3.org/2000/svg" xmlns:ev="http://www.w3.org/2001/xml-events" xmlns:xlink="http://www.w3.org/1999/xlink"><defs /><g /><g><g><g><circle cx="450.0" cy="375.0" fill="none" r="7.5" stroke="black" stroke-width="0.5" /><line stroke="black" stroke-width="0.5" x1="450.0" x2="457.5" y1="367.5" y2="375.0" /><line stroke="black" stroke-width="0.5" x1="457.5" x2="450.0" y1="375.0" y2="382.5" /><line stroke="black" stroke-width="0.5" x1="457.5" x2="442.5" y1="375.0" y2="375.0" /><circle cx="442.5" cy="375.0" fill="none" r="1.0" stroke="black" stroke-width="0.1" /><circle cx="457.5" cy="375.0" fill="none" r="1.0" stroke="black" stroke-width="0.1" /></g><g><text font-family="Arial" font-size="3.52777777777778" x="445.885" y="386.76388888888886">P002</text></g></g></g><g><g><g><circle cx="450.0" cy="355.0" fill="none" r="5.0" stroke="black" stroke-width="0.5" /><line stroke="black" stroke-width="0.5" x1="450.0" x2="450.0" y1="367.5" y2="360.0" /><circle cx="450.0" cy="350.0" fill="none" r="1.0" stroke="black" stroke-width="0.1" /></g><g><text font-family="Arial" font-size="4.23333333333333" x="448.24" y="357.1166666666667">M</text></g></g></g><g><g><g><line stroke="black" stroke-width="0.5" x1="562.5" x2="562.5" y1="362.5" y2="322.5" /><line stroke="black" stroke-width="0.5" x1="582.5" x2="582.5" y1="362.5" y2="322.5" /><line stroke="black" stroke-width="0.5" x1="562.5" x2="567.5" y1="325.0" y2="325.0" /><line stroke="black" stroke-width="0.5" x1="570.0" x2="575.0" y1="325.0" y2="325.0" /><line stroke="black" stroke-width="0.5" x1="577.5" x2="582.5" y1="325.0" y2="325.0" /><line stroke="black" stroke-width="0.5" x1="562.5" x2="567.5" y1="360.0" y2="360.0" /><line stroke="black" stroke-width="0.5" x1="570.0" x2="575.0" y1="360.0" y2="360.0" /><line stroke="black" stroke-width="0.5" x1="577.5" x2="582.5" y1="360.0" y2="360.0" /><line stroke="black" stroke-width="0.5" x1="562.5" x2="570.0" y1="330.0" y2="330.0" /><line stroke="black" stroke-width="0.5" x1="575.0" x2="582.5" y1="330.0" y2="330.0" /><line stroke="black" stroke-width="0.5" x1="562.5" x2="570.0" y1="335.0" y2="335.0" /><line stroke="black" stroke-width="0.5" x1="575.0" x2="582.5" y1="335.0" y2="335.0" /><line stroke="black" stroke-width="0.5" x1="562.5" x2="570.0" y1="340.0" y2="340.0" /><line stroke="black" stroke-width="0.5" x1="575.0" x2="582.5" y1="340.0" y2="340.0" /><line stroke="black" stroke-width="0.5" x1="562.5" x2="570.0" y1="345.0" y2="345.0" /><line stroke="black" stroke-width="0.5" x1="575.0" x2="582.5" y1="345.0" y2="345.0" /><line stroke="black" stroke-width="0.5" x1="562.5" x2="570.0" y1="350.0" y2="350.0" /><line stroke="black" stroke-width="0.5" x1="575.0" x2="582.5" y1="350.0" y2="350.0" /><line stroke="black" stroke-width="0.5" x1="562.5" x2="570.0" y1="355.0" y2="355.0" /><line stroke="black" stroke-width="0.5" x1="575.0" x2="582.5" y1="355.0" y2="355.0" /><path d="M 562.5 362.5 A 21.25 21.25 0 0,0 582.5 362.5" fill="none" stroke="black" stroke-width="0.5" /><path d="M 582.5 322.5 A 21.25 21.25 0 0,0 562.5 322.5" fill="none" stroke="black" stroke-width="0.5" /><path d="M 577.5 328.75 A 10.629412025131 10.629412025131 0 0,0 567.5 328.75" fill="none" stroke="black" stroke-width="0.5" /><path d="M 577.5 333.75 A 10.629412025131 10.629412025131 0 0,0 567.5 333.75" fill="none" stroke="black" stroke-width="0.5" /><path d="M 577.5 338.75 A 10.629412025131 10.629412025131 0 0,0 567.5 338.75" fill="none" stroke="black" stroke-width="0.5" /><path d="M 577.5 343.75 A 10.629412025131 10.629412025131 0 0,0 567.5 343.75" fill="none" stroke="black" stroke-width="0.5" /><path d="M 577.5 348.75 A 10.629412025131 10.629412025131 0 0,0 567.5 348.75" fill="none" stroke="black" stroke-width="0.5" /><path d="M 577.5 353.75 A 10.629412025131 10.629412025131 0 0,0 567.5 353.75" fill="none" stroke="black" stroke-width="0.5" /></g><g><text font-family="Arial" font-size="3.52777777777778" x="576.175" y="369.26388888888886">k001</text></g></g></g><g><g><g><line stroke="black" stroke-width="0.5" transform="scale(1.0,1.4444) translate(-0.0,-106.14649681528661)" x1="647.5" x2="647.5" y1="342.5" y2="302.5" /><line stroke="black" stroke-width="0.5" transform="scale(1.0,1.4444) translate(-0.0,-106.14649681528661)" x1="667.5" x2="667.5" y1="342.5" y2="302.5" /><line stroke="black" stroke-width="0.5" transform="scale(1.0,1.4444) translate(-0.0,-106.14649681528661)" x1="647.5" x2="652.5" y1="305.0" y2="305.0" /><line stroke="black" stroke-width="0.5" transform="scale(1.0,1.4444) translate(-0.0,-106.14649681528661)" x1="655.0" x2="660.0" y1="305.0" y2="305.0" /><line stroke="black" stroke-width="0.5" transform="scale(1.0,1.4444) translate(-0.0,-106.14649681528661)" x1="662.5" x2="667.5" y1="305.0" y2="305.0" /><line stroke="black" stroke-width="0.5" transform="scale(1.0,1.4444) translate(-0.0,-106.14649681528661)" x1="647.5" x2="652.5" y1="340.0" y2="340.0" /><line stroke="black" stroke-width="0.5" transform="scale(1.0,1.4444) translate(-0.0,-106.14649681528661)" x1="655.0" x2="660.0" y1="340.0" y2="340.0" /><line stroke="black" stroke-width="0.5" transform="scale(1.0,1.4444) translate(-0.0,-106.14649681528661)" x1="662.5" x2="667.5" y1="340.0" y2="340.0" /><line stroke="black" stroke-width="0.5" transform="scale(1.0,1.4444) translate(-0.0,-106.14649681528661)" x1="647.5" x2="655.0" y1="310.0" y2="310.0" /><line stroke="black" stroke-width="0.5" transform="scale(1.0,1.4444) translate(-0.0,-106.14649681528661)" x1="660.0" x2="667.5" y1="310.0" y2="310.0" /><line stroke="black" stroke-width="0.5" transform="scale(1.0,1.4444) translate(-0.0,-106.14649681528661)" x1="647.5" x2="655.0" y1="315.0" y2="315.0" /><line stroke="black" stroke-width="0.5" transform="scale(1.0,1.4444) translate(-0.0,-106.14649681528661)" x1="660.0" x2="667.5" y1="315.0" y2="315.0" /><line stroke="black" stroke-width="0.5" transform="scale(1.0,1.4444) translate(-0.0,-106.14649681528661)" x1="647.5" x2="655.0" y1="320.0" y2="320.0" /><line stroke="black" stroke-width="0.5" transform="scale(1.0,1.4444) translate(-0.0,-106.14649681528661)" x1="660.0" x2="667.5" y1="320.0" y2="320.0" /><line stroke="black" stroke-width="0.5" transform="scale(1.0,1.4444) translate(-0.0,-106.14649681528661)" x1="647.5" x2="655.0" y1="325.0" y2="325.0" /><line stroke="black" stroke-width="0.5" transform="scale(1.0,1.4444) translate(-0.0,-106.14649681528661)" x1="660.0" x2="667.5" y1="325.0" y2="325.0" /><line stroke="black" stroke-width="0.5" transform="scale(1.0,1.4444) translate(-0.0,-106.14649681528661)" x1="647.5" x2="655.0" y1="330.0" y2="330.0" /><line stroke="black" stroke-width="0.5" transform="scale(1.0,1.4444) translate(-0.0,-106.14649681528661)" x1="660.0" x2="667.5" y1="330.0" y2="330.0" /><line stroke="black" stroke-width="0.5" transform="scale(1.0,1.4444) translate(-0.0,-106.14649681528661)" x1="647.5" x2="655.0" y1="335.0" y2="335.0" /><line stroke="black" stroke-width="0.5" transform="scale(1.0,1.4444) translate(-0.0,-106.14649681528661)" x1="660.0" x2="667.5" y1="335.0" y2="335.0" /><path d="M 647.5 342.5 A 21.25 21.25 0 0,0 667.5 342.5" fill="none" stroke="black" stroke-width="0.5" transform="scale(1.0,1.4444) translate(-0.0,-106.14649681528661)" /><path d="M 667.5 302.5 A 21.25 21.25 0 0,0 647.5 302.5" fill="none" stroke="black" stroke-width="0.5" transform="scale(1.0,1.4444) translate(-0.0,-106.14649681528661)" /><path d="M 662.5 308.75 A 10.629412025131 10.629412025131 0 0,0 652.5 308.75" fill="none" stroke="black" stroke-width="0.5" transform="scale(1.0,1.4444) translate(-0.0,-106.14649681528661)" /><path d="M 662.5 313.75 A 10.629412025131 10.629412025131 0 0,0 652.5 313.75" fill="none" stroke="black" stroke-width="0.5" transform="scale(1.0,1.4444) translate(-0.0,-106.14649681528661)" /><path d="M 662.5 318.75 A 10.629412025131 10.629412025131 0 0,0 652.5 318.75" fill="none" stroke="black" stroke-width="0.5" transform="scale(1.0,1.4444) translate(-0.0,-106.14649681528661)" /><path d="M 662.5 323.75 A 10.629412025131 10.629412025131 0 0,0 652.5 323.75" fill="none" stroke="black" stroke-width="0.5" transform="scale(1.0,1.4444) translate(-0.0,-106.14649681528661)" /><path d="M 662.5 328.75 A 10.629412025131 10.629412025131 0 0,0 652.5 328.75" fill="none" stroke="black" stroke-width="0.5" transform="scale(1.0,1.4444) translate(-0.0,-106.14649681528661)" /><path d="M 662.5 333.75 A 10.629412025131 10.629412025131 0 0,0 652.5 333.75" fill="none" stroke="black" stroke-width="0.5" transform="scale(1.0,1.4444) translate(-0.0,-106.14649681528661)" /></g><g><text font-family="Arial" font-size="3.52777777777778" x="660.885" y="350.3749888888889">K001</text></g></g></g><g><g><g><path d="M 492.5 260.0 A 5.0 5.0 0 0,0 492.5 270.0" fill="none" stroke="black" stroke-width="0.35" /><path d="M 497.5 270.0 A 5.0 5.0 0 0,0 497.5 260.0" fill="none" stroke="black" stroke-width="0.35" /><line stroke="black" stroke-width="0.35" x1="492.5" x2="497.5" y1="260.0" y2="260.0" /><line stroke="black" stroke-width="0.35" x1="492.5" x2="497.5" y1="270.0" y2="270.0" /><line stroke="black" stroke-width="0.35" x1="487.5" x2="502.5" y1="265.0" y2="265.0" /><line stroke="black" stroke-width="0.35" x1="495.0" x2="495.0" y1="260.0" y2="260.0" /><line stroke="black" stroke-width="0.35" x1="495.0" x2="495.0" y1="270.0" y2="270.0" /><circle cx="487.5" cy="265.0" fill="none" r="1.0" stroke="black" stroke-width="0.1" /><circle cx="495.0" cy="260.0" fill="none" r="1.0" stroke="black" stroke-width="0.1" /><circle cx="495.0" cy="270.0" fill="none" r="1.0" stroke="black" stroke-width="0.1" /><circle cx="502.5" cy="265.0" fill="none" r="1.0" stroke="black" stroke-width="0.1" /></g><g><text font-family="Arial" font-size="3.52777777777778" x="492.65" y="264.2638888888889">YS </text></g><g><text font-family="Arial" font-size="3.52777777777778" x="490.885" y="269.2638888888889">Y004</text></g></g></g><g><g><g><path d="M 470.0 302.5 A 5.0 5.0 0 0,0 480.0 302.5" fill="none" stroke="black" stroke-width="0.35" /><path d="M 480.0 297.5 A 5.0 5.0 0 0,0 470.0 297.5" fill="none" stroke="black" stroke-width="0.35" /><line stroke="black" stroke-width="0.35" x1="470.0" x2="470.0" y1="302.5" y2="297.5" /><line stroke="black" stroke-width="0.35" x1="480.0" x2="480.0" y1="302.5" y2="297.5" /><line stroke="black" stroke-width="0.35" x1="475.0" x2="475.0" y1="307.5" y2="292.5" /><line stroke="black" stroke-width="0.35" x1="470.0" x2="470.0" y1="300.0" y2="300.0" /><line stroke="black" stroke-width="0.35" x1="480.0" x2="480.0" y1="300.0" y2="300.0" /><circle cx="475.0" cy="307.5" fill="none" r="1.0" stroke="black" stroke-width="0.1" /><circle cx="470.0" cy="300.0" fill="none" r="1.0" stroke="black" stroke-width="0.1" /><circle cx="480.0" cy="300.0" fill="none" r="1.0" stroke="black" stroke-width="0.1" /><circle cx="475.0" cy="292.5" fill="none" r="1.0" stroke="black" stroke-width="0.1" /></g><g><text font-family="Arial" font-size="3.52777777777778" transform="rotate(90 472.5,300.0)" x="470.525" y="301.7638888888889">YS </text></g><g><text font-family="Arial" font-size="3.52777777777778" transform="rotate(90 477.5,300.0)" x="475.525" y="301.7638888888889">Y004</text></g></g></g><g><g><g><path d="M 535.0 270.0 A 5.0 5.0 0 0,0 535.0 280.0" fill="none" stroke="black" stroke-width="0.35" /><path d="M 540.0 280.0 A 5.0 5.0 0 0,0 540.0 270.0" fill="none" stroke="black" stroke-width="0.35" /><line stroke="black" stroke-width="0.35" x1="535.0" x2="540.0" y1="270.0" y2="270.0" /><line stroke="black" stroke-width="0.35" x1="535.0" x2="540.0" y1="280.0" y2="280.0" /><line stroke="black" stroke-width="0.35" x1="530.0" x2="545.0" y1="275.0" y2="275.0" /><line stroke="black" stroke-width="0.35" x1="537.5" x2="537.5" y1="270.0" y2="270.0" /><line stroke="black" stroke-width="0.35" x1="537.5" x2="537.5" y1="280.0" y2="280.0" /><circle cx="530.0" cy="275.0" fill="none" r="1.0" stroke="black" stroke-width="0.1" /><circle cx="537.5" cy="270.0" fill="none" r="1.0" stroke="black" stroke-width="0.1" /><circle cx="537.5" cy="280.0" fill="none" r="1.0" stroke="black" stroke-width="0.1" /><circle cx="545.0" cy="275.0" fill="none" r="1.0" stroke="black" stroke-width="0.1" /></g><g><text font-family="Arial" font-size="2.46944444444444" x="536.675" y="273.7347222222222">E </text></g><g><text font-family="Arial" font-size="3.52777777777778" x="534.56" y="279.2638888888889">001</text></g></g></g><g><g><g><path d="M 542.5 287.5 A 5.0 5.0 0 0,0 542.5 297.5" fill="none" stroke="black" stroke-width="0.35" /><path d="M 537.5 297.5 A 5.0 5.0 0 0,0 537.5 287.5" fill="none" stroke="black" stroke-width="0.35" /><line stroke="black" stroke-width="0.35" x1="542.5" x2="537.5" y1="287.5" y2="287.5" /><line stroke="black" stroke-width="0.35" x1="542.5" x2="537.5" y1="297.5" y2="297.5" /><line stroke="black" stroke-width="0.35" x1="540.0" x2="540.0" y1="287.5" y2="287.5" /><line stroke="black" stroke-width="0.35" x1="540.0" x2="540.0" y1="297.5" y2="297.5" /><circle cx="547.5" cy="292.5" fill="none" r="1.0" stroke="black" stroke-width="0.1" /><circle cx="540.0" cy="287.5" fill="none" r="1.0" stroke="black" stroke-width="0.1" /><circle cx="540.0" cy="297.5" fill="none" r="1.0" stroke="black" stroke-width="0.1" /><circle cx="532.5" cy="292.5" fill="none" r="1.0" stroke="black" stroke-width="0.1" /></g><g><text font-family="Arial" font-size="3.52777777777778" x="538.825" y="291.7638888888889">Y </text></g><g><text font-family="Arial" font-size="3.52777777777778" x="535.885" y="296.7638888888889">E001</text></g></g></g><g><g><g><path d="M 517.5 307.5 A 5.0 5.0 0 0,0 517.5 317.5" fill="none" stroke="black" stroke-width="0.35" /><path d="M 522.5 317.5 A 5.0 5.0 0 0,0 522.5 307.5" fill="none" stroke="black" stroke-width="0.35" /><line stroke="black" stroke-width="0.35" x1="517.5" x2="522.5" y1="317.5" y2="317.5" /><line stroke="black" stroke-width="0.35" x1="517.5" x2="522.5" y1="307.5" y2="307.5" /><line stroke="black" stroke-width="0.35" x1="512.5" x2="527.5" y1="312.5" y2="312.5" /><line stroke="black" stroke-width="0.35" x1="520.0" x2="520.0" y1="317.5" y2="317.5" /><line stroke="black" stroke-width="0.35" x1="520.0" x2="520.0" y1="307.5" y2="307.5" /><circle cx="512.5" cy="312.5" fill="none" r="1.0" stroke="black" stroke-width="0.1" /><circle cx="520.0" cy="317.5" fill="none" r="1.0" stroke="black" stroke-width="0.1" /><circle cx="520.0" cy="307.5" fill="none" r="1.0" stroke="black" stroke-width="0.1" /><circle cx="527.5" cy="312.5" fill="none" r="1.0" stroke="black" stroke-width="0.1" /></g><g><text font-family="Arial" font-size="2.46944444444444" transform="rotate(180 520,315.0)" x="519.175" y="316.2347222222222">E </text></g><g><text font-family="Arial" font-size="3.52777777777778" transform="rotate(359.82 520,310.0)" x="515.8788159222237" y="311.7638888888889">E002</text></g></g></g></svg>